<svg width="50" height="50" fill="none" xmlns="http://www.w3.org/2000/svg"><circle cx="25" cy="25" r="25" fill="#D41443"/><path fill-rule="evenodd" clip-rule="evenodd" d="M26.226 3.004c-2.398.203-4.092.839-5.172 1.816-.852.772-1.264 1.723-1.405 2.704-1.022.12-1.985.65-2.509 1.267a4.769 4.769 0 0 0-.966 2.038 4.516 4.516 0 0 0-.104.861c-.559.066-1.113.294-1.509.708-1.349 1.412-2.341 3.379-2.25 5.27.037.988.387 1.998 1.172 2.662-.867.3-1.512 1.008-1.477 1.864-.048.764.187 1.605.753 1.827.367.207.648.25.924.274.001 2.128.116 4.514 1.643 6.065-.053.306-.167.912-.06 1.634.115.784.67 1.693 1.848 2.195l1.528 11.678c.103.786.703 1.407 1.639 1.6 3.484.717 6.971.705 10.42 0 .935-.192 1.54-.813 1.643-1.6l1.53-11.686c.676-.283 1.178-.686 1.467-1.142.223-.348.07-.783-.343-.97-.517-.194-.918-.066-1.145.289-.16.25-.404.47-.998.644-4.59.799-9.363 1.036-14.706.004-.984-.282-1.13-.655-1.209-1.193-.04-.274.018-.574.056-.86 4.143 1.09 7.938 1.567 11.927 1.145.46-.05.787-.406.73-.796-.056-.393-.478-.672-.94-.623-4.025.418-8.7-.166-12.013-1.18-1.406-1.513-1.29-3.363-1.298-5.069 3.963.529 7.924.754 11.922.643.548 1.361 1.818 1.595 3.233 1.332v2.277c0 1.177 1.147 2.149 2.536 2.149 1.388 0 2.529-.972 2.529-2.149v-.847c.265.081.546.135.842.135 1.389 0 2.536-.974 2.536-2.15v-5.07c.016-2.316-1.613-5.126-4.43-6.052-.437-1.909-1.166-3.193-2.17-4.022a5.101 5.101 0 0 0-1.665-.9c.192-.703.217-1.277.082-1.777-.331-.978-1.181-1.507-2.018-2.112-.19-.19-.298-.342-.28-.798.021-.52-.101-1.042-.493-1.468-.355-.663-.924-.626-1.8-.618v.001Zm.466 1.495c.064.07.155.265.144.543-.03.752.27 1.369.68 1.775.658.46 1.296.98 1.651 1.499.061.228.07.585-.077 1.133-1.28-.164-2.681-.036-3.848-.092-1.765-.089-2.544-.855-3.934-1.51.08-.8.366-1.49.98-2.045 1.13-.829 2.44-1.346 4.404-1.303ZM21.54 9.653c1.068.818 2.374 1.069 3.594 1.134 2.438.01 4.24-.212 6.089.914.569.47 1.098 1.243 1.487 2.501-1.107-.18-2.26-.2-3.406-.156-2.067.077-4.148.339-5.957.27-1.809-.07-3.271-.424-4.405-1.517a4.3 4.3 0 0 0-1.138-.782 2.471 2.471 0 0 1 .028-.928c.112-.516.362-1.077.691-1.474 1.017-1.007 2.071-.617 3.017.038Zm-3.87 4.092c1.506 1.45 3.552 1.917 5.596 1.995 2.045.079 4.167-.19 6.112-.264 1.504-.056 2.872.009 4.028.366 2.967.97 3.778 3.482 3.906 5.016v4.962c0 .404-.372.719-.848.719s-.842-.315-.842-.719c-.002-.392-.377-.71-.841-.712-.466-.002-.846.317-.847.712v2.863c0 .404-.365.718-.841.718-.477 0-.848-.314-.848-.718v-4.288c.002-.395-.374-.716-.84-.718-.448-.001-.82.294-.846.672-.02.585-.203.764-.845.759-.706.009-.84-.363-.847-.798v-2.882c-.007-.453-.46-.756-.956-.732-3.562.095-7.192.004-10.834-.292-1.145-.195-1.869-.569-2.33-1.026-.478-.475-.714-1.069-.748-1.768-.067-1.4.772-3.159 1.876-4.315.702-.44 1.171.009 1.796.45Zm-3.21 7.862c4.131.444 8.93.597 12.719.53v1.503c-4.762.096-9.448-.258-13.409-.802-.029-.105-.06-.327-.076-.692-.017-.414.248-.596.767-.54Zm4.388 12.884c4.77.78 9.152.65 13.285.009l-1.47 11.205c-.01.077-.295.352-.357.364-3.201.656-6.396.671-9.626.005-.061-.015-.351-.293-.361-.37L18.848 34.49Z" fill="#fff"/></svg>