<svg width="50" height="50" fill="none" xmlns="http://www.w3.org/2000/svg"><mask id="a" fill="#fff"><path d="M34.395 25.837a9.024 9.024 0 0 1-3.542-.726 9.246 9.246 0 0 1-3.003-2.066 9.556 9.556 0 0 1-2.007-3.093 9.78 9.78 0 0 1-.704-3.648c.002-3.027 1.17-5.93 3.25-8.07 2.078-2.14 4.897-3.343 7.836-3.344 1.75 0 3.483.354 5.1 1.044a13.3 13.3 0 0 1 4.322 2.974 13.75 13.75 0 0 1 2.889 4.452 14.07 14.07 0 0 1 1.013 5.25c-.001.915-.074 1.828-.217 2.73-.026.158-.081.31-.163.445-.082.136-.19.254-.316.347a1.168 1.168 0 0 1-.882.212 1.164 1.164 0 0 1-.769-.493 1.235 1.235 0 0 1-.205-.909c.123-.77.185-1.55.185-2.331 0-2.992-1.156-5.862-3.21-7.978-2.055-2.115-4.84-3.304-7.747-3.306-2.312 0-4.53.946-6.164 2.63a9.118 9.118 0 0 0-2.556 6.347c0 3.915 3.092 7.096 6.89 7.096 2.978 0 5.404-2.494 5.404-5.56a4.38 4.38 0 0 0-1.228-3.048 4.128 4.128 0 0 0-2.96-1.262 3.152 3.152 0 0 0-2.259.965 3.345 3.345 0 0 0-.936 2.325 2.5 2.5 0 0 0 .701 1.738c.448.46 1.055.72 1.689.72.313 0 .614.127.836.356.222.229.347.538.347.862 0 .323-.125.633-.347.861a1.166 1.166 0 0 1-.836.357c-2.623 0-4.757-2.197-4.757-4.894 0-3.16 2.497-5.727 5.561-5.727 3.617 0 6.555 3.026 6.555 6.746 0 4.411-3.486 7.998-7.77 7.998Z"/></mask><path d="M34.395 25.837a9.024 9.024 0 0 1-3.542-.726 9.246 9.246 0 0 1-3.003-2.066 9.556 9.556 0 0 1-2.007-3.093 9.78 9.78 0 0 1-.704-3.648c.002-3.027 1.17-5.93 3.25-8.07 2.078-2.14 4.897-3.343 7.836-3.344 1.75 0 3.483.354 5.1 1.044a13.3 13.3 0 0 1 4.322 2.974 13.75 13.75 0 0 1 2.889 4.452 14.07 14.07 0 0 1 1.013 5.25c-.001.915-.074 1.828-.217 2.73-.026.158-.081.31-.163.445-.082.136-.19.254-.316.347a1.168 1.168 0 0 1-.882.212 1.164 1.164 0 0 1-.769-.493 1.235 1.235 0 0 1-.205-.909c.123-.77.185-1.55.185-2.331 0-2.992-1.156-5.862-3.21-7.978-2.055-2.115-4.84-3.304-7.747-3.306-2.312 0-4.53.946-6.164 2.63a9.118 9.118 0 0 0-2.556 6.347c0 3.915 3.092 7.096 6.89 7.096 2.978 0 5.404-2.494 5.404-5.56a4.38 4.38 0 0 0-1.228-3.048 4.128 4.128 0 0 0-2.96-1.262 3.152 3.152 0 0 0-2.259.965 3.345 3.345 0 0 0-.936 2.325 2.5 2.5 0 0 0 .701 1.738c.448.46 1.055.72 1.689.72.313 0 .614.127.836.356.222.229.347.538.347.862 0 .323-.125.633-.347.861a1.166 1.166 0 0 1-.836.357c-2.623 0-4.757-2.197-4.757-4.894 0-3.16 2.497-5.727 5.561-5.727 3.617 0 6.555 3.026 6.555 6.746 0 4.411-3.486 7.998-7.77 7.998Z" fill="#FFA5BA"/><path d="M34.395 25.837v-5 5Zm-9.256-9.533-5-.004v.004h5ZM36.225 4.89l-.001-5 .002 5ZM49.55 18.61l5 .005v-.003l-5-.001Zm-.217 2.73 4.936.794.002-.007-4.938-.787Zm-2.335-.398 4.936.794.001-.004-4.937-.79Zm.185-2.331 5 .001v-.003l-5 .002ZM36.225 7.327l.002-5h-.002v5Zm-8.72 8.977-5-.002v.002h5ZM39.8 17.839h5v-.004l-5 .004Zm-4.189-4.31v-5h-.006l.006 5Zm-3.194 3.29-5-.005v.014l5-.008Zm2.39 2.458v-5 5Zm-.41 1.56a4.024 4.024 0 0 1-1.581-.325L28.89 29.71a14.025 14.025 0 0 0 5.505 1.127v-10Zm-1.581-.325a4.244 4.244 0 0 1-1.378-.95l-7.174 6.966a14.244 14.244 0 0 0 4.628 3.182l3.924-9.198Zm-1.378-.95a4.557 4.557 0 0 1-.955-1.476l-9.277 3.732a14.557 14.557 0 0 0 3.058 4.71l7.174-6.967Zm-.955-1.476a4.78 4.78 0 0 1-.343-1.782h-10c0 1.888.36 3.762 1.066 5.514l9.277-3.732Zm-.343-1.779c0-1.748.677-3.396 1.836-4.589L24.802 4.75c-3 3.088-4.66 7.245-4.663 11.55l10 .007Zm1.836-4.589c1.154-1.188 2.686-1.827 4.252-1.828l-.003-10c-4.313.002-8.418 1.768-11.422 4.86l7.173 6.968Zm4.252-1.828c1.072 0 2.138.217 3.137.643l3.922-9.199A17.985 17.985 0 0 0 36.224-.11l.003 10Zm3.137.643a8.3 8.3 0 0 1 2.696 1.858l7.175-6.966a18.3 18.3 0 0 0-5.95-4.09l-3.921 9.198Zm2.696 1.858a8.752 8.752 0 0 1 1.836 2.834l9.279-3.73a18.75 18.75 0 0 0-3.94-6.07L42.06 12.39Zm1.836 2.834a9.07 9.07 0 0 1 .653 3.385l10 .002c0-2.438-.465-4.857-1.374-7.117l-9.279 3.73Zm.653 3.382c0 .653-.053 1.304-.155 1.947l9.876 1.573c.184-1.162.278-2.336.279-3.512l-10-.008Zm-.154 1.94c.076-.472.242-.93.495-1.348l8.558 5.173a6.24 6.24 0 0 0 .82-2.238l-9.873-1.587Zm.495-1.348c.253-.418.589-.791.996-1.091l5.934 8.049a6.208 6.208 0 0 0 1.628-1.785l-8.558-5.173Zm.996-1.091c.407-.3.876-.521 1.381-.642l2.33 9.725a6.17 6.17 0 0 0 2.223-1.034l-5.934-8.05Zm1.381-.642a3.85 3.85 0 0 1 1.544-.051l-1.68 9.858a6.15 6.15 0 0 0 2.467-.082l-2.33-9.725Zm1.544-.051c.513.087.998.277 1.426.552l-5.396 8.418c.692.444 1.47.748 2.29.888l1.68-9.858Zm1.426.552c.428.274.79.626 1.07 1.03l-8.21 5.708a6.197 6.197 0 0 0 1.744 1.68l5.396-8.419Zm1.07 1.03c.28.403.476.852.582 1.319l-9.754 2.204c.176.778.5 1.521.962 2.185l8.21-5.708Zm.582 1.319c.105.466.12.948.044 1.42l-9.873-1.587a6.254 6.254 0 0 0 .075 2.37l9.754-2.203Zm.045 1.416a19.79 19.79 0 0 0 .248-3.12l-10-.002c0 .517-.041 1.033-.123 1.543l9.875 1.579Zm.248-3.123c-.001-4.27-1.648-8.395-4.623-11.459l-7.174 6.967c1.134 1.168 1.797 2.782 1.797 4.496l10-.004ZM47.56 7.15c-2.98-3.068-7.052-4.821-11.332-4.823l-.003 10c1.532.001 3.031.627 4.16 1.79L47.56 7.15ZM36.225 2.327c-3.686 0-7.19 1.51-9.75 4.145l7.172 6.968a3.595 3.595 0 0 1 2.578-1.113v-10Zm-9.75 4.145a14.118 14.118 0 0 0-3.97 9.83l10 .004c0-1.102.427-2.13 1.142-2.866l-7.173-6.968Zm-3.97 9.832c0 6.54 5.195 12.096 11.89 12.096v-10c-.9 0-1.89-.804-1.89-2.096h-10ZM34.395 28.4c5.872 0 10.404-4.867 10.404-10.56h-10a.626.626 0 0 1-.17.444c-.096.098-.176.116-.233.116v10ZM44.8 17.835a9.379 9.379 0 0 0-2.643-6.528l-7.17 6.97a.622.622 0 0 1-.187-.433l10-.01Zm-2.643-6.528A9.128 9.128 0 0 0 35.61 8.53v10a.873.873 0 0 1-.625-.253l7.171-6.97ZM35.604 8.53a8.152 8.152 0 0 0-5.839 2.481l7.175 6.967a1.848 1.848 0 0 1-1.323.552l-.013-10Zm-5.839 2.481a8.345 8.345 0 0 0-2.35 5.803l10 .012c0 .405-.155.822-.475 1.152l-7.175-6.967Zm-2.35 5.817a7.499 7.499 0 0 0 2.118 5.216L36.7 15.07c.473.486.713 1.115.715 1.74l-10 .017Zm2.118 5.216a7.356 7.356 0 0 0 5.273 2.233v-10c.74 0 1.418.304 1.895.794l-7.168 6.973Zm5.273 2.233a3.834 3.834 0 0 1-2.75-1.16l7.173-6.966a6.166 6.166 0 0 0-4.423-1.874v10Zm-2.75-1.16a3.763 3.763 0 0 1-1.067-2.621h10a6.238 6.238 0 0 0-1.76-4.345l-7.174 6.966Zm-1.067-2.621c0-.957.367-1.902 1.066-2.622l7.174 6.966a6.237 6.237 0 0 0 1.76-4.344h-10Zm1.066-2.622a3.834 3.834 0 0 1 2.75-1.16v10a6.166 6.166 0 0 0 4.424-1.874l-7.174-6.966Zm2.75-1.16c.05 0 .104.012.15.032a.234.234 0 0 1 .075.048c.02.02.02.036.02.026h-10c0 5.321 4.236 9.894 9.756 9.894v-10Zm.244.106c0-.244.092-.435.218-.565a.469.469 0 0 1 .343-.162v-10c-5.961 0-10.56 4.943-10.56 10.727h10Zm.561-.727c.72 0 1.555.65 1.555 1.746h10c0-6.344-5.041-11.746-11.555-11.746v10Zm1.555 1.746c0 1.786-1.382 2.998-2.77 2.998v10c7.18 0 12.77-5.962 12.77-12.998h-10Z" fill="#FFA5BA" mask="url(#a)"/><mask id="b" fill="#fff"><path d="M33.788 33.33c-4.021-.007-7.895-1.556-10.868-4.345-2.973-2.788-4.83-6.616-5.212-10.739-.382-4.122.74-8.243 3.149-11.56 2.408-3.316 5.928-5.59 9.876-6.38a15.788 15.788 0 0 1 11.476 2.11c3.438 2.147 5.977 5.536 7.122 9.506a17.12 17.12 0 0 1-.93 11.968c-1.744 3.732-4.774 6.661-8.5 8.218a15.793 15.793 0 0 1-6.113 1.223Zm-9.809-6.62a13.76 13.76 0 0 0 4.498 3.104 13.432 13.432 0 0 0 5.311 1.08c3.707 0 7.19-1.483 9.813-4.184a14.422 14.422 0 0 0 3.797-7.315c.535-2.772.26-5.645-.79-8.255a14.203 14.203 0 0 0-5.112-6.411 13.587 13.587 0 0 0-7.708-2.406c-3.703 0-7.186 1.487-9.809 4.184-2.6 2.68-4.062 6.313-4.062 10.101 0 3.789 1.461 7.422 4.062 10.102Z"/></mask><path d="M33.788 33.33c-4.021-.007-7.895-1.556-10.868-4.345-2.973-2.788-4.83-6.616-5.212-10.739-.382-4.122.74-8.243 3.149-11.56 2.408-3.316 5.928-5.59 9.876-6.38a15.788 15.788 0 0 1 11.476 2.11c3.438 2.147 5.977 5.536 7.122 9.506a17.12 17.12 0 0 1-.93 11.968c-1.744 3.732-4.774 6.661-8.5 8.218a15.793 15.793 0 0 1-6.113 1.223Zm-9.809-6.62a13.76 13.76 0 0 0 4.498 3.104 13.432 13.432 0 0 0 5.311 1.08c3.707 0 7.19-1.483 9.813-4.184a14.422 14.422 0 0 0 3.797-7.315c.535-2.772.26-5.645-.79-8.255a14.203 14.203 0 0 0-5.112-6.411 13.587 13.587 0 0 0-7.708-2.406c-3.703 0-7.186 1.487-9.809 4.184-2.6 2.68-4.062 6.313-4.062 10.101 0 3.789 1.461 7.422 4.062 10.102Z" fill="#FFA5BA"/><path d="m39.901 32.108 3.083 7.382h.002L39.9 32.108ZM23.98 26.71l5.755-5.557-.007-.007-.007-.008-5.74 5.572Zm9.809 4.184v-8h-.024l.024 8Zm9.813-4.184-5.74-5.573 5.74 5.573ZM33.788 2.323v8h.003l-.003-8Zm-9.809 4.184L18.244.929l-.006.006 5.741 5.572Zm9.824 18.824c-1.962-.004-3.894-.758-5.41-2.18L17.447 34.82c4.429 4.154 10.246 6.498 16.326 6.51l.03-16Zm-5.41-2.18c-1.522-1.428-2.515-3.433-2.72-5.642L9.743 18.983c.558 6.035 3.282 11.688 7.705 15.837l10.946-11.67Zm-2.72-5.642a9.028 9.028 0 0 1 1.658-6.123l-12.948-9.4c-3.561 4.905-5.2 10.963-4.641 16.997l15.932-1.474Zm1.658-6.123c1.25-1.722 3.034-2.849 4.97-3.236L29.164-7.539c-5.96 1.192-11.215 4.614-14.781 9.525l12.948 9.4ZM32.3 8.15a7.788 7.788 0 0 1 5.67 1.051l8.476-13.57a23.788 23.788 0 0 0-17.283-3.17L32.3 8.151Zm5.67 1.051c1.73 1.08 3.063 2.823 3.673 4.937l15.374-4.432c-1.68-5.826-5.424-10.86-10.57-14.075L37.97 9.2Zm3.673 4.937a9.12 9.12 0 0 1-.492 6.366l14.497 6.772a25.12 25.12 0 0 0 1.369-17.57l-15.374 4.432Zm-.492 6.366c-.919 1.968-2.486 3.45-4.335 4.223l6.169 14.763c5.603-2.341 10.096-6.719 12.663-12.214l-14.497-6.772Zm-4.333 4.222a7.792 7.792 0 0 1-3.018.605l-.026 16c3.163.005 6.29-.622 9.209-1.84l-6.165-14.765Zm-18.595 7.541a21.758 21.758 0 0 0 7.114 4.906l6.277-14.718a5.76 5.76 0 0 1-1.881-1.302l-11.51 11.114Zm7.114 4.906a21.431 21.431 0 0 0 8.474 1.72l-.048-16a5.43 5.43 0 0 1-2.149-.438l-6.277 14.718Zm8.45 1.72c5.902 0 11.446-2.38 15.552-6.61L37.861 21.137c-1.139 1.173-2.56 1.757-4.073 1.757v16Zm15.552-6.61a22.422 22.422 0 0 0 5.913-11.372l-15.71-3.033a6.423 6.423 0 0 1-1.681 3.259L49.34 32.283Zm5.913-11.372a22.682 22.682 0 0 0-1.224-12.758l-14.843 5.973a6.682 6.682 0 0 1 .357 3.752l15.71 3.033ZM54.029 8.153a22.202 22.202 0 0 0-8-10.016L36.964 11.32a6.204 6.204 0 0 1 2.223 2.806l14.843-5.973Zm-8-10.016a21.587 21.587 0 0 0-12.244-3.814l.006 16c1.108 0 2.212.337 3.172.997L46.03-1.863ZM33.789-5.677c-5.905 0-11.444 2.39-15.544 6.606l11.47 11.155c1.146-1.178 2.572-1.76 4.074-1.76v-16ZM18.238.935c-4.073 4.197-6.32 9.838-6.32 15.673h16c0-1.742.673-3.367 1.802-4.53L18.238.936Zm-6.32 15.673c0 5.835 2.247 11.477 6.32 15.674L29.72 21.138c-1.129-1.162-1.803-2.788-1.803-4.53h-16Z" fill="#FFA5BA" mask="url(#b)"/><mask id="c" fill="#fff"><path d="M4.42 50a4.34 4.34 0 0 1-2.502-.804 4.543 4.543 0 0 1-1.623-2.12 4.69 4.69 0 0 1-.175-2.693 4.59 4.59 0 0 1 1.334-2.324l19.034-17.717a1.151 1.151 0 0 1 1.412-.135 1.2 1.2 0 0 1 .363.358 14.3 14.3 0 0 0 2.383 2.79 1.243 1.243 0 0 1 .099 1.73L7.704 48.498c-.4.461-.888.832-1.433 1.09A4.278 4.278 0 0 1 4.535 50H4.42Zm16.688-22.945L3.04 43.867a2.12 2.12 0 0 0-.506.689 2.176 2.176 0 0 0 .406 2.411c.2.206.438.367.7.474a2.008 2.008 0 0 0 1.642-.056 2.07 2.07 0 0 0 .669-.52l16.261-18.526c-.39-.41-.757-.841-1.104-1.284Z"/></mask><path d="M4.42 50a4.34 4.34 0 0 1-2.502-.804 4.543 4.543 0 0 1-1.623-2.12 4.69 4.69 0 0 1-.175-2.693 4.59 4.59 0 0 1 1.334-2.324l19.034-17.717a1.151 1.151 0 0 1 1.412-.135 1.2 1.2 0 0 1 .363.358 14.3 14.3 0 0 0 2.383 2.79 1.243 1.243 0 0 1 .099 1.73L7.704 48.498c-.4.461-.888.832-1.433 1.09A4.278 4.278 0 0 1 4.535 50H4.42Zm16.688-22.945L3.04 43.867a2.12 2.12 0 0 0-.506.689 2.176 2.176 0 0 0 .406 2.411c.2.206.438.367.7.474a2.008 2.008 0 0 0 1.642-.056 2.07 2.07 0 0 0 .669-.52l16.261-18.526c-.39-.41-.757-.841-1.104-1.284Z" fill="#FFA5BA"/><path d="m4.42 50-.01 5h.01v-5Zm-2.966-7.94-3.406-3.66-.006.005 3.412 3.654Zm19.034-17.718-3.406-3.66 3.406 3.66Zm1.775.223 4.186-2.735v-.001l-4.186 2.736Zm1.716 2.145 3.619-3.45-.017-.018-.017-.017-3.585 3.485Zm.667.646-3.357 3.706.007.006.007.006 3.343-3.718Zm.098 1.73-3.754-3.302-.003.004 3.757 3.298ZM7.706 48.497 3.948 45.2l-.008.01-.009.01 3.775 3.278ZM4.535 50v5h.055l.056-.001L4.535 50Zm16.573-22.945 3.935-3.085-3.357-4.282-3.984 3.707 3.406 3.66ZM3.04 43.867l3.347 3.714.03-.027.029-.027-3.406-3.66Zm2.91 2.997-3.757-3.298-.026.03-.026.03 3.81 3.238ZM22.213 28.34l3.758 3.298 3.015-3.435-3.151-3.31-3.622 3.447ZM4.431 45a.66.66 0 0 1 .378.117l-5.782 8.158A9.34 9.34 0 0 0 4.41 55l.02-10Zm.378.117a.46.46 0 0 1 .17.21l-9.368 3.499a9.542 9.542 0 0 0 3.416 4.45l5.782-8.16Zm.17.21a.31.31 0 0 1 .013.181l-9.743-2.25a9.69 9.69 0 0 0 .362 5.568l9.368-3.5Zm.013.181a.412.412 0 0 1-.126.206l-6.824-7.31a9.59 9.59 0 0 0-2.793 4.853l9.743 2.251Zm-.131.211 19.034-17.717-6.813-7.32L-1.952 38.4l6.813 7.32Zm19.034-17.717c-.4.373-.883.66-1.42.836l-3.1-9.507c-.86.28-1.641.744-2.293 1.351l6.813 7.32Zm-1.42.836a3.85 3.85 0 0 1-1.674.16l1.249-9.922a6.15 6.15 0 0 0-2.675.255l3.1 9.507Zm-1.674.16a3.839 3.839 0 0 1-1.57-.563l5.338-8.456a6.16 6.16 0 0 0-2.52-.903l-1.248 9.921Zm-1.57-.563a3.8 3.8 0 0 1-1.152-1.133l8.37-5.473a6.2 6.2 0 0 0-1.88-1.85l-5.338 8.456ZM18.078 27.3a19.291 19.291 0 0 0 2.316 2.895l7.17-6.97a9.297 9.297 0 0 1-1.115-1.395l-8.371 5.47Zm2.282 2.86c.317.332.633.634.93.902l6.712-7.412a7.765 7.765 0 0 1-.404-.39l-7.238 6.9Zm.943.915a3.789 3.789 0 0 1-.888-1.19l9.028-4.299a6.21 6.21 0 0 0-1.455-1.949l-6.685 7.438Zm-.888-1.19a3.757 3.757 0 0 1-.36-1.4l9.984-.57a6.242 6.242 0 0 0-.596-2.329l-9.028 4.3Zm-.36-1.4a3.753 3.753 0 0 1 .197-1.429l9.461 3.237a6.246 6.246 0 0 0 .326-2.378l-9.984.57Zm.197-1.429c.157-.461.406-.895.738-1.272l7.509 6.604a6.223 6.223 0 0 0 1.214-2.095l-9.461-3.237Zm.735-1.268L3.947 45.198l7.515 6.598 17.039-19.411-7.515-6.597ZM3.93 45.218a.607.607 0 0 1 .2-.149l4.282 9.037a9.391 9.391 0 0 0 3.067-2.33l-7.549-6.558Zm.2-.149a.724.724 0 0 1 .292-.068L4.646 55a9.276 9.276 0 0 0 3.767-.893L4.13 45.069ZM4.534 45H4.42v10h.115V45Zm13.167-21.605L-.366 40.206l6.812 7.321 18.068-16.811-6.812-7.321ZM-.308 40.153a7.12 7.12 0 0 0-1.7 2.312l9.084 4.18c-.16.348-.391.668-.689.936l-6.695-7.428Zm-1.7 2.312a7.176 7.176 0 0 0-.653 2.768l9.995.323a2.824 2.824 0 0 1-.258 1.09l-9.084-4.18Zm-.653 2.768a7.18 7.18 0 0 0 .472 2.803l9.337-3.58c.136.353.198.727.186 1.1l-9.995-.323Zm.472 2.803A7.13 7.13 0 0 0-.647 50.45l7.174-6.967c.277.285.486.617.621.971l-9.337 3.58Zm1.542 2.415a7.058 7.058 0 0 0 2.404 1.622l3.767-9.264c.386.157.726.39 1.003.675l-7.174 6.967Zm2.404 1.622a7.01 7.01 0 0 0 2.881.513l-.342-9.995a2.99 2.99 0 0 1 1.228.218l-3.767 9.264Zm2.881.513a7.014 7.014 0 0 0 2.837-.708l-4.386-8.986a2.986 2.986 0 0 1 1.207-.3l.342 9.994Zm2.837-.708a7.07 7.07 0 0 0 2.286-1.776l-7.62-6.475c.255-.301.576-.554.948-.736l4.386 8.987Zm2.233-1.715L25.97 31.637l-7.516-6.597L2.193 43.566l7.515 6.597Zm16.126-25.271a12.696 12.696 0 0 1-.791-.922l-7.87 6.17c.43.55.901 1.104 1.417 1.646l7.244-6.895Z" fill="#FFA5BA" mask="url(#c)"/></svg>