<svg width="30" height="54" fill="none" xmlns="http://www.w3.org/2000/svg"><path d="M1.5 29.5h26M1.512 35h26" stroke="#FFA5BA" stroke-width="2.5" stroke-linecap="round"/><path d="m27.5 30 .012 4.69M1.512 30v4.745" stroke="#FFA5BA" stroke-width="3" stroke-linecap="round"/><path stroke="#FFA5BA" stroke-width="2.5" d="m4.754 35.354 2 17M25.01 34.555 23.011 52.5M5.512 52h18.245"/><path d="m16.92 27.898-1.603-1.92-3.838 3.205 1.602 1.919 3.838-3.204Zm7.746 17.084a2.5 2.5 0 0 0 3.839-3.204l-3.839 3.204Zm-11.585-13.88 11.585 13.88 3.839-3.204-11.586-13.88-3.838 3.204Z" fill="#FFA5BA"/><path d="m1.512 5.5 2.5-1.5s3.427-1.156 5-1.5m0 0c.973-.213-.985.14 0 0Zm0 0c3.5-.5 4.133-.5 5.5-.5M14.512 18c-2.123-.177-5.061-.86-7-2m-6-10.5c0 2.994 1.357 6.018 3 8M4.512 13.5l-2.5 3.5M7.512 16l-2.5 3M2.012 17c-1 2.5 1.5 3.5 3 2M7.012 17v3M11.012 20v-2.5M7.012 20c.5 2.5 3.5 2.5 4 0M27.5 5.5 25 4s-3.427-1.156-5-1.5m0 0c-.973-.213.986.14 0 0Zm0 0C16.5 2 15.88 2 14.512 2M14.512 18c2.124-.177 5.05-.86 6.988-2m6-10.5c0 2.994-1.357 6.018-3 8M24.5 13.5 27 17M21.5 16l2.5 3M27 17c1 2.5-1.5 3.5-3 2M22.012 17v3M18 20l.012-2.5M22.012 20c-.5 2.5-3.512 2.5-4.012 0" stroke="#FFA5BA" stroke-width="2.5" stroke-linecap="round"/></svg>